Coordinates
version=1
nRows=24
nColumns=24
inDegrees=yes

Units are S.I. units (second, meters, Newtons, ...)
Angles are in degrees.

endheader
time	pelvis_tilt	pelvis_list	pelvis_rotation	pelvis_tx	pelvis_ty	pelvis_tz	hip_flexion_r	hip_adduction_r	hip_rotation_r	knee_angle_r	ankle_angle_r	subtalar_angle_r	mtp_angle_r	hip_flexion_l	hip_adduction_l	hip_rotation_l	knee_angle_l	ankle_angle_l	subtalar_angle_l	mtp_angle_l	lumbar_extension	lumbar_bending	lumbar_rotation
      1.32950000	      4.83809287	      3.39033541	     -2.01341243	      0.20989198	      1.01383033	      0.31523393	     10.30706426	     -2.34791721	      0.64946294	    -65.72001866	    -10.35743029	    -17.16344202	     -2.91969582	      1.99630844	      7.90913970	     -0.56819517	     -9.20788145	     -0.27961514	    -11.52385085	      2.56954350	     -6.13577966	     -1.07760366	      3.09136054
      1.33366667	      4.94120607	      3.28536507	     -2.02973223	      0.21499620	      1.01452607	      0.31511020	     10.77022874	     -2.19439235	      0.77167579	    -65.58856738	     -9.47944354	    -17.28974858	     -3.00901453	      1.38731144	      7.83173608	     -0.44057326	     -8.89579089	     -0.17157426	    -11.59659209	      2.48278384	     -6.25758927	     -0.96023431	      3.05368864
      1.33783333	      5.00255282	      3.13646542	     -2.02435600	      0.22004981	      1.01517258	      0.31498668	     11.25773120	     -1.97903335	      0.88644774	    -65.38081591	     -8.62701826	    -17.41846851	     -3.04686266	      0.85871418	      7.69863379	     -0.33662746	     -8.65390385	     -0.03279911	    -11.61331284	      2.44109131	     -6.35149186	     -0.77404039	      3.02376063
      1.34200000	      5.06947753	      3.01109190	     -2.02642403	      0.22511094	      1.01577293	      0.31486620	     11.72974012	     -1.79650023	      1.00141690	    -65.13019794	     -7.78252518	    -17.53613760	     -3.09609446	      0.31340263	      7.59312786	     -0.22327681	     -8.38844553	      0.10314232	    -11.64175487	      2.38784143	     -6.44522818	     -0.62269799	      2.99003980
      1.34616667	      5.13369414	      2.86055918	     -2.01411992	      0.23017895	      1.01636009	      0.31475739	     12.17659150	     -1.58473983	      1.09886904	    -64.80187982	     -6.96665640	    -17.64384790	     -3.12838991	     -0.22158160	      7.45570625	     -0.12289516	     -8.14150835	      0.24751486	    -11.66756023	      2.34927697	     -6.51586435	     -0.45554726	      2.96069425
      1.35033333	      5.19934492	      2.71455316	     -2.00056086	      0.23522381	      1.01691096	      0.31462828	     12.61013076	     -1.38200858	      1.19462864	    -64.42440550	     -6.16054425	    -17.74093460	     -3.16208144	     -0.75685321	      7.32543668	     -0.00949668	     -7.89277305	      0.39316483	    -11.69664592	      2.30833517	     -6.60577255	     -0.27969301	      2.92842919
      1.35450000	      5.27267772	      2.57699929	     -1.98675330	      0.24024511	      1.01742158	      0.31450245	     13.02470632	     -1.19218743	      1.28634976	    -64.00172417	     -5.36268268	    -17.82738658	     -3.19740358	     -1.29732622	      7.20400941	      0.10584256	     -7.64580438	      0.53766192	    -11.73228245	      2.26494083	     -6.71133111	     -0.11222067	      2.89475277
      1.35866667	      5.35269758	      2.43613752	     -1.96632122	      0.24525543	      1.01791975	      0.31437802	     13.41272665	     -1.00035370	      1.37071341	    -63.51988370	     -4.58216648	    -17.89914694	     -3.23846884	     -1.84519950	      7.07831061	      0.23335774	     -7.39597042	      0.67665234	    -11.77830076	      2.21495152	     -6.82992805	      0.06117114	      2.85740812
      1.36283333	      5.47334725	      2.32562359	     -1.95618922	      0.25026620	      1.01841146	      0.31425198	     13.74552733	     -0.85245267	      1.45630293	    -62.99535973	     -3.83378791	    -17.92842392	     -3.35718504	     -2.46276171	      6.99201804	      0.40183736	     -7.08932877	      0.78203306	    -11.89495631	      2.08419610	     -6.99793640	      0.18198201	      2.79605646
      1.36700000	      5.52368290	      2.17508318	     -1.91546080	      0.25525776	      1.01880710	      0.31413148	     14.12684417	     -0.65009329	      1.52389735	    -62.39676814	     -3.11081317	    -17.98804288	     -3.42875688	     -2.95604155	      6.84933045	      0.52554661	     -6.88200986	      0.93337046	    -11.94601496	      2.00383775	     -7.06616896	      0.34701814	      2.76610852
      1.37116667	      5.58470219	      2.02828789	     -1.87462762	      0.26024042	      1.01917721	      0.31400447	     14.48207129	     -0.45698141	      1.58438315	    -61.75147518	     -2.40997977	    -18.04815071	     -3.50105712	     -3.46660358	      6.71100965	      0.65529355	     -6.65846223	      1.08684028	    -11.99278434	      1.92387720	     -7.15918132	      0.52279964	      2.72451172
      1.37533333	      5.69095608	      1.88970795	     -1.84356037	      0.26523686	      1.01956443	      0.31386192	     14.77124559	     -0.28700549	      1.63705269	    -61.05285065	     -1.78060620	    -18.05385551	     -3.75216095	     -4.05661070	      6.58856001	      0.82347471	     -6.36916006	      1.17016614	    -12.13683820	      1.66550719	     -7.31219794	      0.70690677	      2.64735005
      1.37950000	      5.70069729	      1.75842845	     -1.79270413	      0.27018186	      1.01977486	      0.31374201	     15.16223116	     -0.11418715	      1.68469030	    -60.33151840	     -1.12949517	    -18.13292218	     -3.79340384	     -4.48248372	      6.45991495	      0.93818764	     -6.19752710	      1.37497138	    -12.13643478	      1.62192343	     -7.36115155	      0.86671636	      2.63251711
      1.38366667	      5.82178745	      1.63347600	     -1.74781915	      0.27514944	      1.02010828	      0.31362594	     15.39789447	      0.04349177	      1.73282113	    -59.53449666	     -0.51796264	    -18.19947615	     -3.90950256	     -5.06011018	      6.34274235	      1.07239494	     -5.96192643	      1.53097770	    -12.17540600	      1.50875146	     -7.52720538	      1.00231429	      2.56244113
      1.38783333	      5.83666955	      1.49406651	     -1.68045334	      0.28009515	      1.02026142	      0.31349129	     15.73677577	      0.21785658	      1.76144380	    -58.69424791	      0.03729486	    -18.25098758	     -3.96442197	     -5.48110096	      6.20179624	      1.19119194	     -5.80699470	      1.70278920	    -12.21170372	      1.45623111	     -7.56827604	      1.17547538	      2.53465336
      1.39200000	      5.92719614	      1.39050385	     -1.63215150	      0.28504396	      1.02045545	      0.31337723	     15.98301992	      0.34533969	      1.79779409	    -57.82283210	      0.55952666	    -18.31585392	     -4.10218778	     -6.02317518	      6.10533601	      1.34891823	     -5.56923987	      1.85201363	    -12.28929179	      1.33401049	     -7.70945843	      1.29253419	      2.44746312
      1.39616667	      5.97973010	      1.27927271	     -1.56769314	      0.28998430	      1.02057935	      0.31325122	     16.24976357	      0.47985865	      1.82003985	    -56.89849873	      1.03989109	    -18.37754364	     -4.24193636	     -6.50079268	      5.99537764	      1.49841907	     -5.37681466	      2.01186313	    -12.35994770	      1.21673151	     -7.80360823	      1.42627661	      2.38696515
      1.40033333	      6.02038399	      1.16120152	     -1.49892886	      0.29489753	      1.02067173	      0.31311813	     16.50703949	      0.62597854	      1.85065520	    -55.91221092	      1.41604710	    -18.42528735	     -5.11737051	     -6.98124817	      5.88314570	      1.75603210	     -5.15086373	      2.10241812	    -12.63412857	      0.52610701	     -7.89707293	      1.57161544	      2.28550755
      1.40450000	      6.04535502	      1.06880273	     -1.41707403	      0.29984103	      1.02066509	      0.31298624	     16.77344534	      0.72605834	      1.83803325	    -54.91823862	      1.88195084	    -18.48425107	     -5.16607913	     -7.39401609	      5.78188431	      1.83122424	     -5.02534703	      2.30893943	    -12.55964021	      0.49550764	     -7.94024562	      1.68812629	      2.27736988
      1.40866667	      6.12465406	      0.97047625	     -1.35865075	      0.30478960	      1.02070765	      0.31288905	     16.95569460	      0.84061805	      1.85215733	    -53.85916855	      2.20157313	    -18.59087849	     -5.31717929	     -7.90018975	      5.67975560	      1.94028818	     -4.83126214	      2.48616172	    -12.54934006	      0.40431253	     -8.06308747	      1.80245908	      2.19523001
      1.41283333	      6.12631185	      0.87179372	     -1.26999455	      0.30969887	      1.02062340	      0.31276327	     17.20755182	      0.95154214	      1.84394825	    -52.76428241	      2.52602929	    -18.65801052	     -5.37760884	     -8.28353198	      5.57059096	      2.07956504	     -4.71255392	      2.68196038	    -12.57549215	      0.37231093	     -8.10656027	      1.92667029	      2.16272112
      1.41700000	      6.20149414	      0.79176980	     -1.20376478	      0.31462012	      1.02059294	      0.31266588	     17.36000964	      1.04325670	      1.85576211	    -51.62559525	      2.75958683	    -18.79123106	     -5.50642492	     -8.78361141	      5.48574735	      2.23961738	     -4.51793483	      2.83745193	    -12.62779954	      0.30532563	     -8.23640251	      2.01647506	      2.06330883
      1.42116667	      6.19426513	      0.72398948	     -1.12000444	      0.31954214	      1.02040290	      0.31254644	     17.59460608	      1.10925400	      1.83082274	    -50.47161712	      3.01181181	    -18.86121580	     -5.57724129	     -9.15828512	      5.40890783	      2.36653553	     -4.39565964	      3.01686294	    -12.66859124	      0.27160709	     -8.25611534	      2.11015467	      2.02968897
      1.42533333	      6.26421761	      0.64392399	     -1.04762145	      0.32446270	      1.02030913	      0.31245656	     17.71293740	      1.19660514	      1.82608150	    -49.24861054	      3.15019987	    -19.02289131	     -5.72807633	     -9.65055795	      5.31975460	      2.52865352	     -4.20477148	      3.16899185	    -12.72264616	      0.20056839	     -8.38290837	      2.20180751	      1.92424527
